<?xml version="1.0" encoding="UTF-8" ?>
<svg width="478pt" height="310pt" viewBox="0.00 0.00 478.14 310.40" xmlns="http://www.w3.org/2000/svg" xmlns:xlink="http://www.w3.org/1999/xlink">
<g id="graph0" class="graph" transform="scale(1 1) rotate(0) translate(4 306.4)">
<title>%0</title>
<polygon fill="#ffffff" stroke="transparent" points="-4,4 -4,-306.4 474.1393,-306.4 474.1393,4 -4,4"/>
<!-- root -->
<g id="node1" class="node">
<title>root</title>
<ellipse fill="none" stroke="#000000" cx="248.4483" cy="-284.4" rx="27" ry="18"/>
<text text-anchor="middle" x="248.4483" y="-280.2" font-family="Times,serif" font-size="14.00" fill="#000000">root</text>
</g>
<!-- 200.204.22.0/24 -->
<g id="node2" class="node">
<title>200.204.22.0/24</title>
<ellipse fill="none" stroke="#000000" cx="158.4483" cy="-195.6" rx="74.1522" ry="18"/>
<text text-anchor="middle" x="158.4483" y="-191.4" font-family="Times,serif" font-size="14.00" fill="#000000">200.204.22.0/24</text>
</g>
<!-- root&#45;&#45;200.204.22.0/24 -->
<g id="edge1" class="edge">
<title>root--200.204.22.0/24</title>
<path fill="none" stroke="#000000" d="M233.181,-269.3363C217.4336,-253.7988 192.8933,-229.5858 176.268,-213.1822"/>
<text text-anchor="middle" x="223.7232" y="-235.8" font-family="Times,serif" font-size="14.00" fill="#000000">FAI</text>
</g>
<!-- 192.168.143.128/25 -->
<g id="node9" class="node">
<title>192.168.143.128/25</title>
<ellipse fill="none" stroke="#000000" cx="339.4483" cy="-195.6" rx="88.623" ry="18"/>
<text text-anchor="middle" x="339.4483" y="-191.4" font-family="Times,serif" font-size="14.00" fill="#000000">192.168.143.128/25</text>
</g>
<!-- root&#45;&#45;192.168.143.128/25 -->
<g id="edge8" class="edge">
<title>root--192.168.143.128/25</title>
<path fill="none" stroke="#000000" d="M263.8852,-269.3363C279.7062,-253.8978 304.3048,-229.8939 321.1084,-213.4965"/>
<text text-anchor="middle" x="320.0358" y="-235.8" font-family="Times,serif" font-size="14.00" fill="#000000">privés</text>
</g>
<!-- .0/25 -->
<g id="node3" class="node">
<title>.0/25</title>
<ellipse fill="none" stroke="#000000" cx="119.4483" cy="-106.8" rx="30.7401" ry="18"/>
<text text-anchor="middle" x="119.4483" y="-102.6" font-family="Times,serif" font-size="14.00" fill="#000000">.0/25</text>
</g>
<!-- 200.204.22.0/24&#45;&#45;.0/25 -->
<g id="edge2" class="edge">
<title>200.204.22.0/24--.0/25</title>
<path fill="none" stroke="#000000" d="M149.1496,-177.4124C146.3435,-171.7483 143.3154,-165.4528 140.6993,-159.6 135.5379,-148.053 130.2252,-134.853 126.2028,-124.5398"/>
<text text-anchor="middle" x="159.3228" y="-147" font-family="Times,serif" font-size="14.00" fill="#000000">accès</text>
</g>
<!-- .128/25 -->
<g id="node4" class="node">
<title>.128/25</title>
<ellipse fill="none" stroke="#000000" cx="208.4483" cy="-106.8" rx="40.0548" ry="18"/>
<text text-anchor="middle" x="208.4483" y="-102.6" font-family="Times,serif" font-size="14.00" fill="#000000">.128/25</text>
</g>
<!-- 200.204.22.0/24&#45;&#45;.128/25 -->
<g id="edge3" class="edge">
<title>200.204.22.0/24--.128/25</title>
<path fill="none" stroke="#000000" d="M168.5665,-177.63C177.2984,-162.1222 189.8384,-139.8511 198.5157,-124.4402"/>
<text text-anchor="middle" x="210.9904" y="-147" font-family="Times,serif" font-size="14.00" fill="#000000">services</text>
</g>
<!-- .64/26 -->
<g id="node5" class="node">
<title>.64/26</title>
<ellipse fill="none" stroke="#000000" cx="35.4483" cy="-18" rx="35.3967" ry="18"/>
<text text-anchor="middle" x="35.4483" y="-13.8" font-family="Times,serif" font-size="14.00" fill="#000000">.64/26</text>
</g>
<!-- .0/25&#45;&#45;.64/26 -->
<g id="edge4" class="edge">
<title>.0/25--.64/26</title>
<path fill="none" stroke="#000000" d="M98.7798,-92.9651C90.218,-86.7246 80.4874,-78.9341 72.6867,-70.8 62.4381,-60.1134 52.8579,-46.4095 45.9815,-35.6411"/>
<text text-anchor="middle" x="94.8291" y="-58.2" font-family="Times,serif" font-size="14.00" fill="#000000">internet</text>
</g>
<!-- .0/26 -->
<g id="node6" class="node">
<title>.0/26</title>
<ellipse fill="none" stroke="#000000" cx="119.4483" cy="-18" rx="30.7401" ry="18"/>
<text text-anchor="middle" x="119.4483" y="-13.8" font-family="Times,serif" font-size="14.00" fill="#000000">.0/26</text>
</g>
<!-- .0/25&#45;&#45;.0/26 -->
<g id="edge5" class="edge">
<title>.0/25--.0/26</title>
<path fill="none" stroke="#000000" d="M119.4483,-88.4006C119.4483,-73.0587 119.4483,-51.322 119.4483,-36.072"/>
<text text-anchor="middle" x="137.7211" y="-58.2" font-family="Times,serif" font-size="14.00" fill="#000000">clients</text>
</g>
<!-- .128/26 -->
<g id="node7" class="node">
<title>.128/26</title>
<ellipse fill="none" stroke="#000000" cx="208.4483" cy="-18" rx="40.0548" ry="18"/>
<text text-anchor="middle" x="208.4483" y="-13.8" font-family="Times,serif" font-size="14.00" fill="#000000">.128/26</text>
</g>
<!-- .128/25&#45;&#45;.128/26 -->
<g id="edge6" class="edge">
<title>.128/25--.128/26</title>
<path fill="none" stroke="#000000" d="M208.4483,-88.4006C208.4483,-73.0587 208.4483,-51.322 208.4483,-36.072"/>
<text text-anchor="middle" x="231.7681" y="-58.2" font-family="Times,serif" font-size="14.00" fill="#000000">serveurs</text>
</g>
<!-- .192/26 -->
<g id="node8" class="node">
<title>.192/26</title>
<ellipse fill="none" stroke="#000000" cx="307.4483" cy="-18" rx="40.0548" ry="18"/>
<text text-anchor="middle" x="307.4483" y="-13.8" font-family="Times,serif" font-size="14.00" fill="#000000">.192/26</text>
</g>
<!-- .128/25&#45;&#45;.192/26 -->
<g id="edge7" class="edge">
<title>.128/25--.192/26</title>
<path fill="none" stroke="#000000" d="M231.592,-92.0411C240.6172,-85.8878 250.8405,-78.408 259.4483,-70.8 271.8867,-59.8063 284.455,-45.8551 293.6093,-35.0547"/>
<text text-anchor="middle" x="297.8291" y="-58.2" font-family="Times,serif" font-size="14.00" fill="#000000">internet</text>
</g>
<!-- .128/26  -->
<g id="node10" class="node">
<title>.128/26 </title>
<ellipse fill="none" stroke="#000000" cx="324.4483" cy="-106.8" rx="42.8829" ry="18"/>
<text text-anchor="middle" x="324.4483" y="-102.6" font-family="Times,serif" font-size="14.00" fill="#000000">.128/26 </text>
</g>
<!-- 192.168.143.128/25&#45;&#45;.128/26  -->
<g id="edge9" class="edge">
<title>192.168.143.128/25--.128/26 </title>
<path fill="none" stroke="#000000" d="M336.3403,-177.2006C333.7488,-161.8587 330.077,-140.122 327.501,-124.872"/>
<text text-anchor="middle" x="353.6685" y="-147" font-family="Times,serif" font-size="14.00" fill="#000000">pisento</text>
</g>
<!-- .192/26  -->
<g id="node11" class="node">
<title>.192/26 </title>
<ellipse fill="none" stroke="#000000" cx="427.4483" cy="-106.8" rx="42.8829" ry="18"/>
<text text-anchor="middle" x="427.4483" y="-102.6" font-family="Times,serif" font-size="14.00" fill="#000000">.192/26 </text>
</g>
<!-- 192.168.143.128/25&#45;&#45;.192/26  -->
<g id="edge10" class="edge">
<title>192.168.143.128/25--.192/26 </title>
<path fill="none" stroke="#000000" d="M358.5847,-177.8542C364.6808,-172.0994 371.4085,-165.641 377.4483,-159.6 389.2306,-147.8152 402.1559,-134.1456 411.9128,-123.6681"/>
<text text-anchor="middle" x="407.2162" y="-147" font-family="Times,serif" font-size="14.00" fill="#000000">ewen</text>
</g>
</g>
</svg>